P3 
2    2   
255 
196 0 255 255 255 255 46 46 166 106 136 106 