P3 
2    2   
255 
255 166 255 255 255 255 250 250 255 255 255 255 