P3
48   48  
255
93
100
129
30
45
52
91
85
59
144
128
94
95
103
92
157
150
124
114
120
156
111
119
138
116
125
132
118
128
130
139
147
150
148
154
150
133
138
141
127
133
131
129
136
142
129
136
142
112
118
140
115
121
145
109
114
143
92
99
128
98
105
134
90
97
126
102
109
137
117
124
150
104
114
115
116
123
151
91
107
97
96
108
130
96
114
116
109
124
147
104
116
138
126
139
148
117
137
126
126
129
146
101
105
91
91
111
122
75
105
53
154
172
174
156
179
193
92
110
48
168
182
208
114
119
63
118
136
124
147
153
141
105
106
66
162
161
195
152
183
214
163
169
167
82
99
89
100
119
117
107
110
83
116
115
71
124
119
87
114
122
125
75
92
122
104
113
118
104
118
129
123
135
147
117
130
123
128
138
139
138
151
134
137
148
144
141
154
144
124
139
134
121
139
125
123
140
132
131
147
147
137
151
160
105
121
137
102
116
142
84
98
127
89
102
134
103
113
122
96
106
116
80
93
102
117
131
132
90
103
109
112
124
148
99
112
129
132
146
159
121
139
115
130
142
130
129
143
82
103
118
121
75
100
60
93
107
146
89
112
144
96
114
32
135
142
168
117
115
102
105
120
101
142
152
127
108
114
24
183
192
175
137
164
181
135
136
157
62
78
91
99
110
138
108
117
114
113
124
66
154
140
91
88
109
136
83
105
128
82
92
94
86
101
134
92
106
132
101
115
128
105
119
120
121
136
133
112
127
122
88
104
104
107
125
127
78
94
117
107
123
146
105
123
145
123
141
163
92
110
130
111
130
145
123
145
158
103
125
136
107
120
137
119
135
125
89
96
125
113
126
108
81
90
97
89
97
120
80
94
105
141
159
173
116
122
122
110
120
129
101
116
59
132
141
140
65
85
24
103
120
148
78
101
155
100
108
48
150
160
125
118
115
126
102
115
89
151
166
143
115
115
63
126
132
168
115
137
135
133
135
132
50
64
75
81
86
106
82
93
95
132
141
60
118
109
80
68
88
125
82
94
116
82
89
118
74
87
122
76
88
112
82
93
113
60
75
72
92
103
109
117
132
129
82
94
106
90
104
115
62
75
107
70
85
116
67
82
111
61
76
105
60
76
102
63
81
105
65
83
105
83
101
123
74
89
108
108
124
113
79
83
112
115
125
101
102
107
111
82
88
110
92
107
114
82
100
114
128
130
117
112
123
129
65
76
46
133
132
138
68
79
21
88
109
110
83
107
153
121
125
51
107
104
121
116
124
101
83
99
54
104
122
124
112
120
61
79
90
146
88
103
122
105
107
119
12
21
16
50
50
42
48
54
44
174
170
79
29
29
39
37
45
56
47
48
40
38
47
62
40
50
60
49
58
67
63
73
65
76
82
78
98
107
90
117
123
123
138
147
146
180
187
197
155
166
170
153
164
168
149
160
166
169
179
188
165
175
185
163
175
189
182
194
210
110
121
139
85
99
112
121
133
133
155
159
170
157
161
147
159
161
158
152
155
172
116
125
134
111
123
135
116
118
97
119
132
106
117
125
78
159
159
125
56
59
12
82
103
88
84
107
141
121
124
33
100
101
95
111
123
103
90
101
85
87
102
125
102
113
57
102
120
160
124
140
153
121
134
116
51
48
57
61
56
50
57
55
32
165
152
73
0
0
25
32
29
20
46
44
23
21
26
32
22
27
30
12
16
17
42
44
39
92
93
88
156
157
151
195
195
197
198
199
204
221
221
233
209
209
219
208
208
216
195
199
202
226
230
229
248
253
249
249
254
248
249
255
248
251
255
250
223
232
237
212
219
229
215
219
218
240
240
238
209
210
204
204
203
219
192
195
204
124
129
135
78
75
84
81
85
70
81
79
54
139
141
94
94
95
63
74
88
65
39
57
77
123
126
47
93
94
80
88
103
64
88
102
51
79
85
81
126
139
85
106
127
110
73
87
100
84
95
99
85
76
71
84
82
70
122
117
62
118
109
52
57
50
58
38
36
37
12
16
19
24
18
30
14
14
22
53
54
56
140
138
149
175
174
172
173
169
183
143
141
144
104
100
114
139
137
148
192
189
198
180
177
184
111
109
112
153
151
152
208
208
208
234
234
234
255
255
255
255
255
255
254
255
255
250
250
255
239
241
240
246
246
246
214
215
210
193
191
205
155
152
161
103
101
102
92
93
98
40
33
40
79
61
85
51
47
46
78
73
79
121
124
113
77
91
91
131
132
75
71
73
24
68
75
44
96
106
43
92
93
15
80
86
50
33
41
28
18
27
42
64
74
76
100
91
62
71
74
63
186
182
108
101
100
69
80
62
42
37
42
38
3
24
9
67
59
22
49
51
48
128
129
131
152
152
150
111
109
114
83
82
78
76
74
77
70
71
65
74
75
70
109
104
108
104
99
103
77
75
76
144
143
141
209
208
206
222
220
221
244
244
246
254
253
255
255
254
255
252
250
253
255
254
255
254
255
251
254
254
254
235
231
246
171
164
171
127
118
119
68
73
69
98
88
87
40
17
33
24
21
16
50
48
53
124
122
125
168
178
179
137
133
121
82
77
37
68
74
12
54
54
28
127
111
52
99
100
68
42
40
25
8
13
32
82
93
59
96
104
81
153
138
95
174
162
122
111
94
74
55
65
40
60
48
62
25
25
37
60
65
59
144
148
157
143
148
152
108
112
113
98
99
103
140
140
148
102
100
111
83
82
90
101
100
105
139
129
130
73
65
63
145
138
132
164
160
151
186
183
174
218
217
212
232
234
229
245
247
244
255
253
255
251
253
248
249
254
250
255
253
255
255
253
255
246
246
244
164
163
161
185
172
179
127
120
127
101
96
102
87
82
86
72
68
67
41
33
30
68
64
63
186
187
192
223
229
241
166
176
177
87
98
64
57
63
29
92
101
38
108
114
70
47
48
50
14
24
13
64
79
60
5
9
8
165
152
120
127
121
59
73
63
12
72
83
43
74
65
56
167
168
172
182
186
187
172
176
185
136
141
145
79
83
84
27
28
32
0
0
7
52
50
61
85
84
90
117
117
119
145
140
134
127
122
116
167
164
157
180
177
170
201
200
195
186
186
184
200
201
203
237
241
244
251
247
248
252
255
253
252
255
253
255
251
252
255
254
255
220
222
221
139
139
139
104
94
102
82
76
80
106
101
105
119
117
120
80
76
75
52
47
43
34
28
28
125
124
129
209
213
224
225
232
242
176
182
178
40
40
38
105
107
70
104
103
82
76
79
60
42
48
34
84
97
67
23
23
33
81
70
52
120
118
44
92
86
26
55
57
33
72
65
47
136
136
138
169
173
176
145
149
158
137
142
146
97
101
102
60
64
67
151
151
159
152
152
160
94
93
98
80
80
80
146
144
132
163
161
149
150
150
140
161
160
155
191
192
187
218
218
218
199
200
204
211
212
217
231
229
232
246
252
250
250
254
253
255
254
251
255
254
253
225
227
226
136
140
143
70
65
71
33
25
23
39
35
36
84
82
85
76
72
73
43
38
35
51
45
45
60
58
61
150
150
158
217
226
225
167
171
170
85
91
57
109
113
62
93
94
52
129
131
92
67
74
33
80
89
44
37
37
35
95
89
73
120
119
52
107
99
62
44
33
49
53
45
42
70
69
75
138
142
143
129
132
139
45
50
53
55
61
61
140
145
148
117
120
127
148
148
156
134
134
136
65
65
63
156
152
141
165
163
151
171
168
159
151
151
143
161
160
155
184
181
176
190
187
182
214
209
205
227
226
222
231
235
236
241
245
244
255
255
250
250
247
242
238
242
243
146
150
153
96
92
93
57
48
41
29
24
20
57
55
56
114
112
115
106
100
100
48
39
40
74
70
71
157
155
158
202
205
222
152
155
160
46
46
34
111
117
45
77
72
52
93
94
54
97
95
82
129
127
132
52
51
21
82
82
56
131
132
64
126
120
94
58
40
64
80
74
84
66
66
76
120
126
126
113
116
121
75
80
83
77
83
83
82
90
92
87
92
98
132
135
140
152
152
152
101
100
95
138
131
123
144
137
129
130
125
119
142
138
129
124
120
109
162
154
141
156
147
130
177
166
146
208
201
191
214
214
212
227
229
226
244
244
234
238
238
228
240
244
243
174
176
175
146
139
131
116
104
90
99
92
84
58
56
57
69
67
70
80
76
77
31
25
25
63
58
55
155
151
150
215
220
216
140
142
137
52
54
32
115
122
45
98
96
55
98
99
55
107
109
60
120
114
126
107
100
54
74
79
39
132
136
60
105
103
65
164
148
135
76
75
83
96
98
110
124
133
138
142
145
150
79
84
87
66
75
74
73
81
83
103
111
114
142
146
149
114
114
112
90
90
82
124
117
111
123
118
112
98
93
89
87
84
77
93
86
76
100
91
74
126
114
90
132
118
91
168
152
129
193
189
180
209
210
205
223
223
211
236
238
225
241
243
240
213
210
205
194
181
162
179
162
144
128
118
108
60
56
55
31
30
35
36
34
39
29
23
23
23
18
14
111
108
101
178
178
188
169
171
160
15
16
2
123
133
44
81
75
79
100
100
64
112
118
56
162
161
141
128
116
66
73
80
39
82
84
21
47
47
11
77
63
18
15
17
29
20
24
36
64
77
83
136
140
143
94
99
102
80
89
88
68
78
79
86
94
97
103
108
111
66
67
62
59
59
49
71
71
61
69
70
62
66
67
62
100
101
96
109
109
101
114
108
96
114
103
85
108
93
70
144
118
85
178
166
154
195
194
189
202
204
190
223
225
211
234
235
230
212
202
192
217
194
163
181
161
137
145
131
118
101
95
95
50
49
55
44
42
47
28
24
23
64
61
54
69
67
55
125
126
121
201
200
195
51
54
23
124
133
54
111
105
117
125
125
97
98
106
46
97
99
85
143
129
82
74
80
46
113
111
72
77
74
57
74
58
6
46
48
73
44
50
66
63
78
83
138
142
145
132
138
138
86
95
94
34
44
45
56
66
68
51
56
59
32
33
28
43
43
31
50
54
40
44
50
40
80
87
80
82
88
86
99
101
98
131
128
121
130
122
111
92
80
66
130
98
59
155
138
122
179
176
169
185
188
171
199
203
188
228
227
222
185
171
158
222
194
155
208
184
160
152
136
121
113
107
107
76
75
81
38
37
43
40
36
35
91
88
79
109
107
94
92
98
50
131
131
121
79
81
59
133
142
59
30
29
25
64
74
5
78
85
43
66
60
98
141
122
46
79
81
32
76
83
39
94
77
21
38
40
27
14
23
38
20
38
40
82
85
102
145
152
160
152
157
163
89
90
92
28
28
26
33
34
29
9
10
5
21
21
19
33
33
31
53
52
47
79
79
71
87
87
79
82
82
74
49
50
44
79
80
75
73
73
73
41
41
43
78
74
63
105
103
91
137
137
125
148
148
136
184
184
172
239
237
224
162
156
144
179
173
161
145
135
126
106
93
87
109
107
110
98
98
110
88
79
70
103
95
82
150
144
144
107
97
72
76
85
30
67
76
9
86
92
20
112
111
54
121
117
90
103
108
67
54
63
34
136
142
166
125
107
45
97
99
49
66
70
47
132
118
53
19
18
24
30
40
41
31
43
55
68
70
82
128
135
141
132
137
141
39
41
40
19
20
15
7
6
1
20
19
14
16
17
11
21
22
17
18
19
14
20
21
16
12
12
10
13
15
12
4
6
5
46
47
49
40
41
45
17
18
22
3
0
0
44
40
37
116
115
110
177
178
172
187
186
181
248
245
240
209
204
198
123
116
110
38
32
42
74
63
67
99
95
92
145
142
135
155
141
115
139
127
105
178
174
175
149
144
124
89
101
29
52
57
1
118
124
34
151
149
98
90
88
50
64
74
3
48
54
44
78
85
95
145
131
86
121
124
79
89
91
80
94
82
22
36
34
48
50
56
52
104
112
125
118
117
125
140
145
149
101
106
109
11
13
10
17
18
10
16
16
6
16
16
6
38
38
30
56
56
48
18
22
21
6
10
11
31
34
39
16
19
28
0
2
11
14
18
27
44
49
55
39
44
48
2
0
3
103
103
105
189
189
191
237
237
239
221
221
221
251
249
250
253
249
250
178
174
175
70
74
86
111
106
113
174
170
167
226
217
208
221
200
169
165
149
124
206
203
196
146
148
111
58
67
2
78
80
30
102
105
38
149
144
112
63
62
18
87
93
33
54
55
60
91
93
114
135
124
92
118
121
94
118
122
107
144
129
98
179
181
180
174
172
183
180
184
187
177
174
181
146
151
155
112
116
117
67
70
63
52
52
40
62
60
47
55
53
40
88
86
74
85
82
73
34
38
37
52
57
61
68
72
83
91
94
109
80
86
102
60
66
80
0
5
13
0
2
7
101
102
106
200
201
205
247
248
252
253
254
255
254
253
255
255
255
255
255
253
255
254
252
255
153
159
157
67
65
70
185
183
188
183
174
179
231
210
193
211
194
174
175
170
148
133
136
65
80
88
15
96
100
39
129
130
73
81
76
44
85
87
24
59
64
10
64
64
64
82
84
99
156
150
128
171
172
154
150
153
132
160
146
135
177
183
169
178
174
189
171
172
167
175
173
178
155
160
164
128
132
131
103
106
97
83
84
70
80
79
61
89
86
69
97
93
81
86
82
71
94
99
95
79
83
86
74
78
87
72
75
90
81
87
103
73
79
93
66
75
84
82
91
98
165
166
168
207
208
210
236
237
239
248
248
250
254
254
255
255
255
255
251
251
251
255
255
255
250
251
243
89
84
88
180
180
188
189
188
194
223
209
196
231
215
200
180
173
147
125
123
36
83
92
13
107
109
62
130
130
80
60
55
35
86
90
31
38
43
2
33
31
42
58
61
70
159
153
139
162
164
142
117
120
103
142
129
120
155
163
152
176
168
179
188
184
183
169
169
171
159
164
168
121
125
124
101
102
94
79
80
64
80
77
58
89
84
65
81
75
61
73
66
56
67
68
62
70
72
69
33
34
38
65
68
75
113
117
128
135
139
150
110
117
127
142
149
157
158
162
161
184
186
185
224
224
224
255
254
255
253
252
250
253
252
250
255
255
253
254
254
252
255
254
255
217
210
217
190
192
191
227
230
219
237
227
200
223
210
194
187
179
160
121
115
37
59
67
0
178
179
147
108
107
79
169
165
154
114
116
76
121
122
117
120
120
132
117
119
134
168
164
152
158
159
128
128
129
115
192
182
172
171
179
168
176
167
172
173
169
168
175
175
175
143
148
154
130
134
135
118
119
111
82
80
65
87
84
65
90
85
66
79
73
59
53
46
36
82
80
68
84
84
74
85
85
77
118
118
116
165
166
168
157
160
165
148
152
161
140
144
155
141
142
144
167
167
167
206
204
205
250
246
247
252
248
249
255
255
253
255
255
253
252
252
250
254
255
255
255
253
255
221
220
215
236
234
213
221
206
173
217
201
188
164
157
147
83
84
14
81
93
7
150
151
120
131
132
100
158
159
143
105
108
77
182
182
194
199
203
202
179
184
187
134
131
116
128
127
96
125
124
104
142
131
125
137
148
132
162
153
158
160
155
152
158
160
159
150
154
163
140
144
145
116
117
109
96
94
79
86
81
61
72
67
48
68
60
47
69
60
51
61
58
43
85
82
67
91
89
76
117
117
107
143
144
139
128
129
131
134
137
144
135
137
149
123
124
128
142
142
144
186
184
187
224
219
223
235
229
233
252
248
249
237
235
236
252
252
252
244
255
249
255
254
255
247
242
238
235
224
206
228
204
176
194
175
169
147
144
137
85
97
23
76
89
1
160
158
161
138
143
102
148
148
148
123
124
119
125
124
140
79
81
104
24
30
28
146
143
126
97
104
37
137
135
120
133
130
139
130
131
126
133
133
143
127
131
130
138
141
146
139
144
150
137
141
142
120
123
114
99
102
85
93
91
70
84
76
57
70
54
39
61
43
31
71
55
30
94
80
51
92
81
51
84
76
57
89
84
78
111
112
114
130
139
138
121
132
126
125
126
128
163
164
168
168
167
172
184
183
188
182
180
183
202
198
199
192
186
186
180
175
172
244
231
241
249
255
248
246
252
252
213
199
172
218
196
182
177
175
163
131
136
116
107
98
81
85
99
2
163
165
143
139
143
118
135
138
147
148
154
170
174
176
197
88
89
94
3
0
12
154
152
131
88
90
40
146
142
139
149
147
152
131
133
119
151
155
158
156
162
160
157
162
165
154
161
171
148
153
157
131
136
130
116
118
104
108
106
83
98
91
65
85
71
44
74
58
32
65
49
23
81
66
35
83
72
40
75
67
44
92
88
77
125
127
126
130
138
140
114
126
124
122
129
139
143
147
158
145
147
159
86
82
96
64
56
67
37
25
35
94
79
86
152
135
141
195
178
184
254
255
248
251
250
255
214
198
172
190
169
148
141
135
119
139
139
127
175
164
162
115
106
125
109
105
138
76
82
118
79
87
106
53
59
59
63
61
74
59
62
51
1
9
11
150
143
125
108
105
74
171
164
172
147
145
148
137
141
124
156
161
164
160
167
175
161
170
179
153
161
174
141
150
157
130
136
136
121
124
115
112
111
91
103
98
68
92
83
44
81
68
26
80
63
35
76
61
28
86
73
38
87
80
51
103
100
83
120
122
117
108
116
118
102
113
117
120
133
142
119
129
139
140
144
156
84
82
95
80
72
83
11
0
7
44
25
31
105
84
89
166
148
148
253
250
245
251
248
255
156
140
117
209
188
167
138
133
111
139
139
127
151
141
140
78
85
91
53
56
45
97
100
79
87
97
73
97
111
114
91
104
121
77
83
99
72
75
56
168
159
144
128
123
91
158
153
149
124
122
123
150
153
146
156
162
174
160
167
183
155
163
184
146
156
166
133
143
152
126
135
140
124
130
128
115
117
104
111
107
82
105
97
61
94
85
44
85
68
38
69
54
21
68
55
20
78
72
38
102
100
75
119
123
109
116
125
122
117
126
131
95
109
112
118
129
133
107
115
118
63
64
68
22
20
23
21
12
13
9
0
0
50
37
31
178
162
162
249
245
242
244
242
247
164
152
136
127
113
102
125
123
102
119
122
103
73
73
45
104
107
76
136
140
125
169
174
177
71
83
63
144
150
146
145
152
134
149
152
161
128
134
134
143
137
105
123
123
63
147
149
102
148
149
131
166
170
171
156
163
173
154
164
174
138
149
169
136
149
157
129
139
148
127
136
143
126
134
137
120
122
119
117
115
103
116
111
91
110
103
77
107
93
64
102
91
59
87
78
45
89
83
49
108
105
74
123
125
103
124
127
118
104
110
108
117
123
123
101
106
109
104
109
112
64
68
69
44
46
45
16
18
15
6
7
1
34
35
27
197
188
189
255
255
253
210
212
211
116
114
102
148
142
144
117
118
102
113
123
89
67
80
11
115
112
93
132
135
104
174
176
175
58
67
22
169
166
183
169
163
191
174
172
186
137
134
161
104
104
44
133
139
51
129
137
54
126
133
92
133
138
134
140
148
150
136
148
148
136
149
158
126
139
145
124
135
141
122
133
139
119
128
133
116
122
122
116
117
112
117
114
105
114
110
98
107
102
73
115
110
81
109
102
74
113
107
75
117
113
78
122
119
88
133
132
111
126
127
113
104
103
99
104
103
101
95
95
95
78
80
79
30
31
33
37
41
40
36
42
38
90
96
92
168
167
165
225
227
224
180
188
177
119
123
109
154
153
158
100
103
86
124
134
97
69
89
2
104
109
77
105
104
76
173
163
162
87
85
44
168
164
187
150
151
171
156
155
153
172
162
171
103
108
28
137
142
60
119
128
49
115
122
81
149
154
150
166
174
177
139
149
151
125
135
144
123
133
142
125
136
142
119
130
134
113
123
124
113
122
117
115
120
113
113
116
105
112
114
101
112
115
86
111
111
87
111
106
86
111
105
79
104
98
62
102
97
57
119
113
79
138
133
104
145
140
118
116
113
94
83
80
63
69
67
54
40
37
28
31
31
21
30
30
22
90
90
80
140
141
133
159
161
156
144
151
135
114
122
99
126
127
121
102
102
78
143
146
117
75
91
18
118
115
80
126
128
104
135
139
138
109
114
91
166
157
174
166
156
164
167
165
168
160
166
162
102
107
27
86
90
29
93
98
44
104
108
81
145
149
152
151
157
169
136
143
159
112
121
136
120
128
141
123
132
141
113
124
126
104
116
112
108
120
110
110
121
107
108
114
100
107
111
96
112
118
92
108
111
90
117
116
98
115
109
87
112
106
70
114
107
63
105
96
53
109
100
61
123
120
75
136
133
92
118
114
77
94
89
59
77
71
45
83
75
52
93
85
64
149
141
120
216
217
203
186
185
180
161
166
146
110
119
88
106
107
89
103
100
67
129
127
106
99
108
55
133
142
115
114
120
82
126
122
136
139
145
109
133
140
107
145
151
137
135
141
127
160
160
170
117
125
39
34
43
0
94
91
48
126
133
117
142
151
166
131
138
144
104
123
127
80
87
95
75
86
90
97
108
110
104
114
116
99
108
107
104
110
106
107
114
106
107
113
99
110
117
101
104
107
86
117
119
95
111
110
82
123
120
89
116
112
77
123
118
80
118
114
76
121
118
77
111
107
69
123
121
83
143
140
107
135
134
106
143
142
121
146
147
131
175
177
164
228
230
219
229
232
223
188
192
177
156
158
147
127
132
100
62
63
47
86
93
41
111
117
57
91
98
31
114
127
73
68
80
32
70
82
36
109
123
70
87
103
41
96
112
50
118
132
81
133
145
105
106
108
35
78
83
43
81
75
39
117
123
109
143
153
163
126
133
139
98
116
118
116
123
131
98
109
111
102
113
115
107
117
119
106
115
114
103
109
105
103
110
102
105
111
97
104
111
95
106
109
90
117
119
98
110
110
86
123
119
92
123
118
89
136
131
101
135
130
100
137
132
100
143
138
109
135
131
104
138
136
111
172
169
150
213
211
196
226
226
214
232
233
225
239
240
234
237
237
245
198
199
201
160
161
156
113
120
79
70
75
34
111
120
55
69
72
27
49
50
19
99
107
50
80
87
33
81
90
35
104
113
56
83
93
33
104
115
57
123
133
81
111
120
75
53
50
0
110
106
77
80
73
47
133
136
127
139
148
155
131
141
143
103
121
123
108
115
123
108
119
121
99
110
112
105
115
116
111
120
119
105
111
107
102
109
101
106
112
100
102
109
93
110
112
98
112
113
97
104
103
85
124
119
99
130
125
103
140
134
112
139
134
112
143
138
118
149
144
125
163
157
141
176
173
158
215
213
201
240
240
230
242
241
236
246
247
242
244
244
242
240
241
245
219
220
224
169
168
174
143
146
125
65
69
36
72
79
28
62
64
27
65
66
34
55
56
14
68
69
25
81
83
36
71
72
30
82
82
46
87
88
56
86
87
55
96
97
63
85
77
41
83
75
52
93
86
70
133
134
129
139
149
151
116
130
133
102
117
120
109
118
123
101
112
114
97
108
110
104
114
115
111
120
119
107
113
109
103
110
102
105
111
99
104
110
96
107
110
93
102
103
87
96
95
77
121
118
99
132
127
108
133
128
109
133
127
111
142
139
122
152
148
136
181
177
166
202
198
189
221
218
209
243
242
237
240
239
234
241
242
237
243
243
241
241
243
238
219
221
216
171
170
175
146
147
142
90
91
77
36
38
14
63
64
30
67
72
14
38
37
6
64
64
28
80
80
42
60
57
26
57
54
35
60
56
44
25
24
4
56
59
30
124
114
87
124
114
89
117
113
102
133
133
133
129
139
140
113
131
135
116
127
133
100
109
114
101
113
113
109
121
121
111
121
122
108
117
116
108
114
110
102
109
101
100
106
96
104
110
96
101
104
85
99
101
80
96
95
75
116
114
93
126
124
103
130
127
108
136
133
116
146
144
129
167
163
152
192
190
178
205
203
191
198
195
186
234
234
224
242
242
234
233
234
228
238
239
233
238
239
241
219
221
218
151
151
149
110
112
99
67
71
38
57
59
37
37
37
11
80
84
33
34
39
0
61
66
25
66
68
28
80
79
48
54
52
31
79
78
58
42
47
17
47
55
14
65
60
28
99
91
55
128
128
118
127
128
130
125
137
135
106
126
133
113
122
129
119
129
131
109
121
121
121
133
133
116
126
127
106
115
114
109
115
113
105
112
105
101
107
97
106
112
100
100
103
84
106
109
88
102
104
82
108
107
86
119
117
96
131
130
110
144
143
125
148
149
133
166
164
151
197
195
182
208
209
195
188
188
176
214
214
204
229
229
219
225
225
217
238
239
231
236
238
235
229
230
232
174
173
178
144
145
137
71
78
24
65
69
36
22
21
1
81
83
46
31
37
1
48
54
20
36
36
10
64
63
43
79
77
62
72
74
53
68
75
44
53
64
24
80
81
37
82
78
30
207
213
199
131
136
139
114
129
126
108
130
141
114
121
131
119
129
131
116
128
126
117
129
127
114
124
123
109
118
117
111
117
115
111
118
111
109
115
105
105
111
99
108
110
96
112
115
98
107
108
90
110
109
91
120
119
101
130
129
111
144
145
129
151
153
139
167
168
154
195
196
182
202
202
190
205
205
193
215
215
205
238
238
230
236
235
230
241
240
235
251
254
243
222
223
225
179
177
188
137
136
141
84
91
40
13
15
0
25
23
8
66
69
26
40
45
15
50
51
33
30
25
19
31
23
20
71
64
54
35
34
14
47
52
22
52
59
25
129
133
82
87
85
26
186
197
181
202
210
212
112
126
126
92
116
128
125
129
141
112
122
123
119
131
129
109
121
119
109
119
118
112
121
120
112
118
116
114
121
114
112
118
108
98
104
92
114
116
105
109
111
98
106
107
93
120
118
105
131
129
114
129
130
116
145
145
133
160
162
149
174
175
161
201
201
189
204
204
194
230
230
220
219
219
211
240
239
234
239
238
234
231
230
226
237
239
236
229
230
232
175
174
179
149
148
154
107
112
72
29
28
24
38
35
26
99
104
50
38
43
3
54
52
29
48
41
31
31
22
15
39
32
13
52
49
14
65
71
27
90
98
51
130
130
44
121
120
56
161
156
136
191
189
194
146
150
151
103
113
114
117
130
139
117
132
139
115
125
126
115
125
124
112
122
121
104
113
110
105
114
109
116
123
116
117
124
116
104
112
101
108
112
98
117
121
107
116
118
105
127
127
115
137
137
125
119
117
104
163
159
147
177
173
161
179
180
166
201
201
189
222
222
214
236
235
230
221
222
217
241
242
237
237
238
232
241
242
236
239
237
240
221
221
223
148
150
147
125
131
117
83
92
65
51
59
22
26
32
0
85
91
53
35
36
5
49
51
27
64
67
38
60
65
24
70
76
32
61
62
28
46
45
14
81
79
41
146
149
72
133
136
79
134
136
122
150
154
165
127
136
141
100
111
113
122
132
141
117
127
129
113
123
124
111
121
120
111
122
118
111
120
115
112
122
114
119
126
118
117
125
114
108
116
105
117
120
109
120
123
112
126
128
117
136
136
124
148
148
136
113
111
99
164
162
150
165
161
150
196
197
183
202
202
190
219
219
211
229
228
223
230
231
226
231
232
227
232
233
228
232
233
227
243
244
239
231
231
231
185
187
186
132
135
128
80
85
63
60
66
30
83
86
41
90
92
43
91
92
52
89
90
46
108
111
64
59
62
15
89
91
44
96
96
46
65
63
14
65
63
15
98
101
32
119
126
74
128
136
125
113
125
139
112
126
135
110
123
129
118
127
134
117
123
121
114
124
123
109
119
118
109
120
116
115
124
119
115
125
117
120
127
119
117
125
114
113
119
107
115
118
107
124
126
115
135
137
126
146
146
136
145
145
135
124
121
112
176
173
164
164
161
152
190
191
177
207
207
195
217
217
207
218
217
212
225
226
220
232
233
228
235
236
231
224
225
220
215
218
209
212
214
211
183
183
183
170
171
165
145
144
123
99
100
60
119
118
64
140
138
79
157
153
106
153
154
84
164
169
79
153
160
67
167
172
78
176
180
86
167
165
88
144
139
84
138
130
65
77
75
24
108
114
100
122
136
147
101
119
129
89
106
113
89
98
105
111
117
113
114
125
121
110
121
117
108
117
112
113
123
115
113
120
112
118
126
115
117
123
111
114
120
108
112
114
103
132
134
123
144
146
135
151
152
144
126
126
118
149
149
141
184
184
176
174
174
166
173
173
161
204
204
192
212
212
202
219
219
211
215
216
210
231
232
227
233
234
229
223
224
219
224
229
223
199
201
198
159
160
155
136
134
121
139
136
105
101
97
50
124
118
60
137
129
67
154
148
72
126
124
39
110
110
20
134
134
44
137
138
45
117
117
21
127
124
31
150
145
61
126
106
43
120
108
56
136
135
115
108
119
123
93
110
117
102
119
127
92
102
111
118
127
122
110
121
115
111
120
115
107
117
109
110
120
111
106
114
103
117
123
111
116
122
108
113
119
105
121
123
112
138
140
129
159
161
150
154
155
147
115
116
108
163
164
156
179
178
173
183
182
177
171
171
159
187
187
177
202
202
192
219
219
211
216
217
209
220
221
215
223
224
219
225
225
223
223
228
232
243
244
246
188
188
178
145
144
116
137
133
88
126
117
62
123
113
54
173
160
105
144
134
62
151
142
77
165
155
94
133
125
60
152
144
79
146
138
73
126
118
46
134
126
45
113
92
39
117
103
54
96
94
71
98
107
106
100
115
118
108
123
130
96
106
115
93
102
97
104
113
108
109
119
111
106
116
107
112
120
109
103
111
98
116
122
108
115
122
106
116
123
107
131
133
120
133
135
122
168
170
157
147
149
138
124
126
115
159
160
152
166
167
159
182
183
177
172
172
162
168
168
158
194
194
184
200
200
190
210
211
203
212
213
207
222
223
218
221
221
219
233
237
246
200
204
205
160
161
147
147
144
109
137
131
79
146
136
75
145
133
75
155
139
87
148
132
72
141
125
73
161
148
95
164
155
90
145
136
69
133
123
64
113
101
41
117
107
35
106
93
58
114
110
72
67
70
51
96
105
104
105
119
120
88
101
107
71
80
87
98
108
100
106
116
108
108
118
110
104
114
105
114
122
111
101
109
96
113
119
105
115
122
106
126
130
113
126
128
114
127
129
115
163
165
151
131
133
120
129
131
120
151
153
142
158
161
152
174
177
168
174
174
164
153
153
143
182
182
172
179
179
169
189
190
182
203
204
198
218
219
214
220
220
218
220
228
230
200
205
201
184
185
171
142
137
107
157
149
100
130
120
61
146
135
73
123
111
51
153
136
64
135
120
55
117
102
45
130
117
64
99
88
32
134
123
61
143
133
61
154
143
61
66
65
44
49
53
26
28
36
21
89
101
101
94
108
108
92
103
107
74
82
85
99
107
96
112
122
114
109
119
110
104
112
101
114
122
109
100
106
92
109
116
100
115
122
106
134
138
121
118
121
104
128
131
114
154
156
142
116
118
104
123
125
112
146
149
138
154
157
146
164
167
158
182
182
174
143
143
133
166
166
156
177
177
165
170
172
161
187
188
182
201
201
199
226
226
226
228
238
230
215
220
214
162
162
150
143
137
113
105
96
55
107
98
41
142
133
68
161
150
84
170
149
106
155
138
82
132
118
55
105
93
33
126
115
53
170
160
89
130
119
53
149
133
81
