P3 
48    48   
255 
253
161
115
104
12
0
186
94
48
255
196
150
228
136
90
255
244
198
255
214
168
255
196
150
255
200
154
255
202
156
255
248
202
255
255
214
255
230
184
255
214
168
255
225
179
255
225
179
255
198
152
255
207
161
255
196
150
251
159
113
255
173
127
246
154
108
255
182
136
255
214
168
255
170
124
255
214
168
232
140
94
255
170
124
255
163
117
255
205
159
255
189
143
255
230
184
255
205
159
255
221
175
235
143
97
255
163
117
184
92
46
255
255
251
255
255
255
198
106
60
255
255
255
232
140
94
255
205
159
255
253
207
219
127
81
255
255
255
255
255
255
255
255
251
214
122
76
255
173
127
237
145
99
237
145
99
255
168
122
255
191
145
228
136
90
255
170
124
255
184
138
255
225
179
255
198
152
255
225
179
255
239
193
255
244
198
255
251
205
255
219
173
255
209
163
255
216
170
255
239
193
255
255
212
255
193
147
255
191
145
244
152
106
255
163
117
255
173
127
251
159
113
216
124
78
255
205
159
237
145
99
255
209
163
255
175
129
255
248
202
255
202
156
255
223
177
255
186
140
255
177
131
186
94
48
255
179
133
255
179
133
191
99
53
255
255
209
255
170
124
255
163
117
255
237
191
196
104
58
255
255
255
255
255
237
255
242
196
184
92
46
255
179
133
255
175
129
239
147
101
255
209
163
255
170
124
248
156
110
212
120
74
253
161
115
255
168
122
255
177
131
255
177
131
255
214
168
255
191
145
232
140
94
255
189
143
228
136
90
255
202
156
255
200
154
255
242
196
255
168
122
255
209
163
255
242
196
255
193
147
255
193
147
255
205
159
244
152
106
255
179
133
212
120
74
242
150
104
221
129
83
255
255
230
255
191
145
255
189
143
219
127
81
255
230
184
140
48
2
255
198
152
255
170
124
202
110
64
255
248
202
255
189
143
242
150
104
255
255
221
230
138
92
255
242
196
255
212
166
255
221
175
152
60
14
216
124
78
214
122
76
255
170
124
242
150
104
221
129
83
230
138
92
228
136
90
223
131
85
219
127
81
228
136
90
166
74
28
239
147
101
255
205
159
223
131
85
244
152
106
193
101
55
214
122
76
205
113
67
191
99
53
189
97
51
198
106
60
200
108
62
242
150
104
214
122
76
255
179
133
216
124
78
255
175
129
251
159
113
221
129
83
246
154
108
232
140
94
255
202
156
255
193
147
150
58
12
255
223
177
136
44
0
242
150
104
255
177
131
235
143
97
255
168
122
255
175
129
186
94
48
255
182
136
230
138
92
248
156
110
246
154
108
255
168
122
44
0
0
115
23
0
117
25
0
255
239
193
81
0
0
113
21
0
110
18
0
120
28
0
122
30
0
140
48
2
161
69
23
186
94
48
232
140
94
255
193
147
255
244
198
255
255
255
255
255
244
255
255
239
255
255
232
255
255
255
255
255
255
255
255
255
255
255
255
255
198
152
232
140
94
255
212
166
255
255
239
255
255
225
255
255
235
255
255
235
255
202
156
255
198
152
255
168
122
255
189
143
251
159
113
255
253
207
104
12
0
216
124
78
255
168
122
219
127
81
232
140
94
255
173
127
219
127
81
246
154
108
214
122
76
255
207
161
255
235
189
255
198
152
127
35
0
133
41
0
117
25
0
255
214
168
25
0
0
69
0
0
92
0
0
67
0
0
67
0
0
41
0
0
101
9
0
216
124
78
255
255
223
255
255
255
255
255
255
255
255
255
255
255
255
255
255
255
255
255
255
255
255
255
255
255
255
255
255
255
255
255
255
255
255
255
255
255
255
255
255
255
255
255
255
255
255
255
255
255
255
255
255
255
255
255
255
255
212
166
189
97
51
186
94
48
170
78
32
255
200
154
200
108
62
179
87
41
138
46
0
232
140
94
212
120
74
202
110
64
191
99
53
193
101
55
255
182
136
255
177
131
205
113
67
219
127
81
184
92
46
186
94
48
237
145
99
221
129
83
133
41
0
92
0
0
41
0
0
62
0
0
44
0
0
131
39
0
255
242
196
255
255
255
255
255
255
255
242
196
251
159
113
255
239
193
255
255
255
255
255
255
255
168
122
255
255
219
255
255
255
255
255
255
255
255
255
255
255
255
255
255
255
255
255
255
255
255
255
255
255
255
255
255
255
255
255
255
255
255
228
242
150
104
223
131
85
92
0
0
179
87
41
117
25
0
182
90
44
255
189
143
205
113
67
255
173
127
136
44
0
150
58
12
193
101
55
159
67
21
173
81
35
85
0
0
74
0
0
170
78
32
200
108
62
166
74
28
255
255
232
214
122
76
147
55
9
97
5
0
35
0
0
120
28
0
120
28
0
255
212
166
255
255
216
255
170
124
193
101
55
179
87
41
163
71
25
175
83
37
253
161
115
242
150
104
182
90
44
255
242
196
255
255
255
255
255
255
255
255
255
255
255
255
255
255
255
255
255
255
255
255
255
255
255
255
255
255
255
255
255
255
255
255
255
255
193
147
168
76
30
216
124
78
76
0
0
53
0
0
122
30
0
255
198
152
255
255
255
255
214
168
156
64
18
124
32
0
110
18
0
228
136
90
212
120
74
87
0
0
46
0
0
186
94
48
221
129
83
255
209
163
255
255
219
221
129
83
129
37
0
136
44
0
74
0
0
147
55
9
255
255
212
255
253
207
255
170
124
237
145
99
255
242
196
246
154
108
202
110
64
242
150
104
255
219
173
161
69
23
255
232
186
255
255
232
255
255
255
255
255
255
255
255
255
255
255
255
255
255
255
255
255
255
255
255
255
255
255
255
255
255
255
255
255
255
255
255
242
255
255
255
255
200
154
235
143
97
202
110
64
166
74
28
85
0
0
156
64
18
255
255
255
255
255
255
255
255
255
198
106
60
120
28
0
184
92
46
230
138
92
117
25
0
46
0
0
161
69
23
23
0
0
255
248
202
242
150
104
120
28
0
159
67
21
156
64
18
255
255
255
255
255
255
255
255
255
255
237
191
196
104
58
74
0
0
12
0
0
131
39
0
205
113
67
255
184
138
255
235
189
255
193
147
255
255
242
255
255
255
255
255
255
255
255
255
255
255
255
255
255
255
255
255
255
255
255
255
255
255
255
255
255
255
255
255
255
255
255
255
255
235
189
237
145
99
189
97
51
246
154
108
255
186
140
184
92
46
115
23
0
76
0
0
255
205
159
255
255
255
255
255
255
255
255
255
97
5
0
223
131
85
228
136
90
170
78
32
101
9
0
196
104
58
67
0
0
161
69
23
223
131
85
163
71
25
117
25
0
147
55
9
255
228
182
255
255
255
255
255
214
255
239
193
237
145
99
152
60
14
255
255
221
255
255
223
225
133
87
191
99
53
255
237
191
255
255
230
255
251
205
255
255
232
255
255
255
255
255
255
255
255
255
255
255
255
255
255
255
255
255
255
255
255
255
255
255
255
255
255
255
255
255
255
255
235
189
163
71
25
69
0
0
90
0
0
198
106
60
175
83
37
94
2
0
115
23
0
143
51
5
255
255
219
255
255
255
255
255
255
184
92
46
223
131
85
189
97
51
255
184
138
140
48
2
170
78
32
90
0
0
202
110
64
230
138
92
212
120
74
104
12
0
113
21
0
170
78
32
255
239
193
255
221
175
120
28
0
143
51
5
255
246
200
255
193
147
255
255
214
255
223
177
154
62
16
255
255
212
255
255
235
255
255
251
255
255
209
255
255
232
255
255
255
255
255
255
255
255
255
255
255
255
255
255
255
255
255
255
255
255
255
255
255
255
255
255
255
255
255
212
221
129
83
117
25
0
62
0
0
136
44
0
255
175
129
242
150
104
104
12
0
170
78
32
255
255
228
255
255
255
255
255
225
104
12
0
216
124
78
161
69
23
191
99
53
216
124
78
255
212
166
101
9
0
175
83
37
255
166
120
255
175
129
131
39
0
189
97
51
166
74
28
255
200
154
255
182
136
189
97
51
193
101
55
209
117
71
219
127
81
255
225
179
255
255
219
232
140
94
255
214
168
255
228
182
255
200
154
255
228
182
255
184
138
255
255
219
255
246
200
255
255
244
255
255
255
255
255
255
255
255
255
255
255
255
255
255
255
255
255
255
255
255
255
255
232
186
244
152
106
216
124
78
138
46
0
163
71
25
184
92
46
69
0
0
140
48
2
255
255
219
255
255
255
255
235
189
113
21
0
223
131
85
198
106
60
200
108
62
219
127
81
255
191
145
207
115
69
154
62
16
255
166
120
216
124
78
255
255
212
186
94
48
239
147
101
255
216
170
255
248
202
198
106
60
170
78
32
189
97
51
255
166
120
255
248
202
255
175
129
207
115
69
255
184
138
255
184
138
221
129
83
196
104
58
202
110
64
209
117
71
255
168
122
255
175
129
255
255
212
255
255
255
255
255
255
255
255
255
255
255
255
255
255
255
255
255
255
255
255
255
255
255
239
255
186
140
138
46
0
81
0
0
90
0
0
64
0
0
48
0
0
251
159
113
255
255
255
255
255
251
32
0
0
237
145
99
186
94
48
209
117
71
225
133
87
255
255
223
244
152
106
154
62
16
150
58
12
87
0
0
127
35
0
53
0
0
67
0
0
177
85
39
255
235
189
232
140
94
202
110
64
179
87
41
219
127
81
253
161
115
156
64
18
133
41
0
161
69
23
161
69
23
156
64
18
235
143
97
251
159
113
251
159
113
237
145
99
214
122
76
255
179
133
255
255
251
255
255
255
255
255
255
255
255
255
255
255
255
255
255
255
255
255
255
255
255
235
255
216
170
230
138
92
124
32
0
108
16
0
64
0
0
143
51
5
152
60
14
255
200
154
255
255
255
104
12
0
244
152
106
255
170
124
255
179
133
198
106
60
221
129
83
255
186
140
159
67
21
232
140
94
166
74
28
113
21
0
133
41
0
129
37
0
177
85
39
255
239
193
255
228
182
216
124
78
101
9
0
152
60
14
133
41
0
78
0
0
97
5
0
117
25
0
108
16
0
196
104
58
202
110
64
235
143
97
255
205
159
255
193
147
189
97
51
225
133
87
255
232
186
255
255
255
255
255
255
255
255
255
255
255
255
255
255
255
255
255
255
255
255
255
255
228
182
255
166
120
184
92
46
97
5
0
92
0
0
205
113
67
244
152
106
191
99
53
255
207
161
175
83
37
255
170
124
71
0
0
115
23
0
163
71
25
177
85
39
244
152
106
154
62
16
159
67
21
154
62
16
87
0
0
64
0
0
81
0
0
212
120
74
255
255
219
255
255
230
214
122
76
69
0
0
81
0
0
25
0
0
53
0
0
81
0
0
122
30
0
182
90
44
200
108
62
189
97
51
115
23
0
186
94
48
175
83
37
101
9
0
170
78
32
235
143
97
255
221
175
255
246
200
255
255
255
255
255
255
255
255
223
255
255
255
255
225
179
225
133
87
255
163
117
242
150
104
189
97
51
221
129
83
255
251
205
219
127
81
152
60
14
122
30
0
159
67
21
219
127
81
255
166
120
219
127
81
122
30
0
255
255
209
219
127
81
193
101
55
147
55
9
239
147
101
53
0
0
92
0
0
106
14
0
175
83
37
255
223
177
255
228
182
99
7
0
48
0
0
16
0
0
46
0
0
39
0
0
53
0
0
46
0
0
51
0
0
32
0
0
37
0
0
18
0
0
115
23
0
104
12
0
51
0
0
9
0
0
99
7
0
255
175
129
255
255
255
255
255
255
255
255
255
255
255
255
255
182
136
92
0
0
163
71
25
225
133
87
255
237
191
255
230
184
255
198
152
255
255
255
255
235
189
175
83
37
90
0
0
219
127
81
255
219
173
182
90
44
115
23
0
117
25
0
205
113
67
255
191
145
255
163
117
205
113
67
159
67
21
97
5
0
127
35
0
255
175
129
255
191
145
255
246
200
248
156
110
32
0
0
41
0
0
35
0
0
35
0
0
87
0
0
129
37
0
53
0
0
28
0
0
85
0
0
55
0
0
16
0
0
51
0
0
120
28
0
106
14
0
9
0
0
244
152
106
255
255
255
255
255
255
255
255
255
255
255
255
255
255
255
255
255
255
182
90
44
255
168
122
255
255
255
255
255
255
255
255
255
255
251
205
255
255
255
255
225
179
104
12
0
150
58
12
193
101
55
255
225
179
115
23
0
170
78
32
136
44
0
235
143
97
255
184
138
255
170
124
255
179
133
255
198
152
255
255
255
255
255
255
255
255
255
255
255
255
255
255
214
255
179
133
159
67
21
117
25
0
136
44
0
120
28
0
196
104
58
191
99
53
90
0
0
136
44
0
177
85
39
232
140
94
212
120
74
163
71
25
21
0
0
14
0
0
244
152
106
255
255
255
255
255
255
255
255
255
255
255
255
255
255
255
255
255
255
255
255
255
255
255
228
161
69
23
255
255
255
255
255
255
255
255
255
255
255
255
255
255
246
255
170
124
147
55
9
186
94
48
255
168
122
161
69
23
156
64
18
108
16
0
154
62
16
209
117
71
255
246
200
255
255
248
255
248
202
255
253
207
255
255
255
255
255
255
255
255
255
255
255
255
255
255
235
255
214
168
242
150
104
189
97
51
175
83
37
193
101
55
214
122
76
189
97
51
228
136
90
196
104
58
189
97
51
189
97
51
214
122
76
193
101
55
179
87
41
214
122
76
255
255
251
255
255
255
255
255
255
255
255
255
255
255
255
255
255
255
255
255
255
255
255
255
255
255
255
207
115
69
255
255
255
255
255
255
255
255
255
255
255
255
255
255
251
223
131
85
150
58
12
219
127
81
255
175
129
122
30
0
166
74
28
69
0
0
87
0
0
152
60
14
255
255
214
255
255
228
255
175
129
255
214
168
255
255
228
255
255
255
255
255
255
255
255
255
255
255
244
255
198
152
235
143
97
177
85
39
170
78
32
189
97
51
173
81
35
156
64
18
156
64
18
168
76
30
87
0
0
166
74
28
255
189
143
255
239
193
255
186
140
255
255
212
255
255
237
255
255
255
255
255
255
255
255
255
255
255
255
255
255
255
255
255
255
255
255
255
255
255
255
255
255
255
255
255
255
255
255
255
255
255
255
255
255
255
255
255
255
216
124
78
104
12
0
255
255
255
232
140
94
255
255
242
242
150
104
255
191
145
255
200
154
255
198
152
255
255
239
255
255
209
255
200
154
255
255
255
255
255
255
255
255
255
255
255
255
255
255
255
255
255
209
255
221
175
255
182
136
179
87
41
186
94
48
191
99
53
168
76
30
110
18
0
182
90
44
191
99
53
196
104
58
255
184
138
255
255
251
255
255
237
255
255
221
255
251
205
255
242
196
255
255
253
255
255
255
255
255
255
255
255
255
255
255
255
255
255
255
255
255
255
255
255
255
255
255
255
255
255
255
255
255
255
255
255
255
255
255
255
255
255
228
145
53
7
145
53
7
255
237
191
255
193
147
255
255
221
228
136
90
255
255
255
255
255
255
255
255
255
255
207
161
255
184
138
255
184
138
255
219
173
255
235
189
255
255
230
255
255
225
255
255
235
255
255
225
255
244
198
255
177
131
212
120
74
182
90
44
150
58
12
140
48
2
145
53
7
131
39
0
186
94
48
202
110
64
255
175
129
255
242
196
255
212
166
255
232
186
255
237
191
255
202
156
255
242
196
255
255
255
255
255
255
255
255
255
255
255
255
255
255
255
255
255
255
255
255
255
255
255
255
255
255
255
255
255
255
255
255
255
255
255
255
255
242
196
163
71
25
133
41
0
255
255
235
255
207
161
255
255
209
255
196
150
255
212
166
209
117
71
69
0
0
255
232
186
189
97
51
255
214
168
255
223
177
255
212
166
255
228
182
255
212
166
255
239
193
255
246
200
255
237
191
255
189
143
225
133
87
200
108
62
173
81
35
131
39
0
110
18
0
127
35
0
179
87
41
177
85
39
173
81
35
198
106
60
255
173
127
255
225
179
255
205
159
255
205
159
255
255
248
255
255
255
255
255
255
255
255
255
255
255
255
255
255
255
255
255
255
255
255
255
255
255
255
255
255
255
255
255
255
255
255
255
255
255
255
255
207
161
225
133
87
150
58
12
255
255
230
255
221
175
255
237
191
255
255
230
255
255
255
214
122
76
18
0
0
255
248
202
173
81
35
255
242
196
255
255
212
255
207
161
255
255
223
255
255
235
255
255
239
255
255
242
255
255
219
255
219
173
255
173
127
235
143
97
200
108
62
159
67
21
131
39
0
110
18
0
145
53
7
156
64
18
150
58
12
202
110
64
255
205
159
255
228
182
255
193
147
255
214
168
255
255
212
255
255
214
209
117
71
150
58
12
81
0
0
205
113
67
255
242
196
255
255
255
255
255
255
255
255
255
255
255
255
255
255
255
255
216
170
255
225
179
255
255
253
255
179
133
255
184
138
219
127
81
214
122
76
138
46
0
159
67
21
138
46
0
23
0
0
255
235
189
225
133
87
255
255
255
255
251
205
255
223
177
255
255
237
255
255
253
255
255
255
255
255
242
255
255
212
255
223
177
255
191
145
246
154
108
212
120
74
175
83
37
140
48
2
143
51
5
133
41
0
156
64
18
173
81
35
225
133
87
255
189
143
255
177
131
255
168
122
255
216
170
255
212
166
255
251
205
207
115
69
186
94
48
21
0
0
83
0
0
219
127
81
255
255
223
255
255
255
255
255
255
255
230
184
255
255
255
255
207
161
255
225
179
255
246
200
200
108
62
124
32
0
219
127
81
202
110
64
253
161
115
248
156
110
205
113
67
161
69
23
255
255
230
255
177
131
255
255
221
255
198
152
255
255
212
255
255
246
255
255
255
255
255
253
255
255
228
255
242
196
255
221
175
255
207
161
255
173
127
237
145
99
207
115
69
177
85
39
152
60
14
117
25
0
115
23
0
150
58
12
219
127
81
255
184
138
255
193
147
255
200
154
248
156
110
255
205
159
255
175
129
156
64
18
55
0
0
41
0
0
14
0
0
97
5
0
255
255
253
255
255
255
255
255
255
255
255
214
255
177
131
255
182
136
255
177
131
152
60
14
225
133
87
255
221
175
255
255
255
173
81
35
255
251
205
255
244
198
255
255
223
255
219
173
255
209
163
244
152
106
255
219
173
255
242
196
255
255
255
255
255
246
255
255
246
255
255
219
255
253
207
255
232
186
255
225
179
255
219
173
255
191
145
255
170
124
251
159
113
228
136
90
209
117
71
200
108
62
168
76
30
175
83
37
225
133
87
255
184
138
255
198
152
253
161
115
255
193
147
248
156
110
255
163
117
161
69
23
110
18
0
44
0
0
16
0
0
81
0
0
255
255
255
255
255
255
255
255
255
255
168
122
255
246
200
255
173
127
255
163
117
127
35
0
251
159
113
255
198
152
255
255
255
120
28
0
255
255
255
255
255
255
255
255
255
255
246
200
200
108
62
253
161
115
251
159
113
255
184
138
255
225
179
255
251
205
255
246
200
255
253
207
255
228
182
255
221
175
255
216
170
255
205
159
255
191
145
255
179
133
255
173
127
253
161
115
223
131
85
242
150
104
225
133
87
232
140
94
242
150
104
255
166
120
255
202
156
255
196
150
242
150
104
242
150
104
225
133
87
189
97
51
78
0
0
97
5
0
94
2
0
219
127
81
255
255
251
255
255
255
255
255
255
255
184
138
255
255
225
228
136
90
255
186
140
129
37
0
228
136
90
225
133
87
255
255
251
173
81
35
255
255
255
255
255
230
255
255
223
255
255
255
189
97
51
255
175
129
232
140
94
251
159
113
255
255
216
255
255
255
255
251
205
255
223
177
255
219
173
255
223
177
255
207
161
255
191
145
255
184
138
255
182
136
255
170
124
255
166
120
246
154
108
244
152
106
239
147
101
232
140
94
209
117
71
202
110
64
244
152
106
255
202
156
255
223
177
253
161
115
179
87
41
152
60
14
87
0
0
69
0
0
69
0
0
205
113
67
255
232
186
255
255
232
255
244
198
255
170
124
255
200
154
223
131
85
255
225
179
147
55
9
246
154
108
255
189
143
255
230
184
246
154
108
255
255
248
255
255
242
255
255
251
255
255
242
186
94
48
163
71
25
186
94
48
230
138
92
255
255
209
255
255
235
255
251
205
255
198
152
255
212
166
255
219
173
255
193
147
255
168
122
255
173
127
255
173
127
253
161
115
246
154
108
253
161
115
244
152
106
255
168
122
244
152
106
228
136
90
223
131
85
200
108
62
214
122
76
251
159
113
255
191
145
244
152
106
191
99
53
154
62
16
168
76
30
191
99
53
255
228
182
255
255
255
255
255
255
255
255
230
248
156
110
237
145
99
214
122
76
255
191
145
207
115
69
255
214
168
248
156
110
255
209
163
255
216
170
255
205
159
255
246
200
255
223
177
255
255
244
221
129
83
64
0
0
184
92
46
255
202
156
255
255
221
255
230
184
255
186
140
207
115
69
198
106
60
248
156
110
255
170
124
246
154
108
251
159
113
255
166
120
251
159
113
255
166
120
235
143
97
255
168
122
239
147
101
255
168
122
239
147
101
253
161
115
242
150
104
248
156
110
225
133
87
255
166
120
255
214
168
255
202
156
255
225
179
255
239
193
255
255
255
255
255
255
255
255
255
255
255
255
255
255
221
255
189
143
138
46
0
175
83
37
225
133
87
175
83
37
246
154
108
145
53
7
150
58
12
237
145
99
184
92
46
205
113
67
255
168
122
255
207
161
198
106
60
163
71
25
156
64
18
255
182
136
255
255
221
255
219
173
255
168
122
255
198
152
251
159
113
255
168
122
255
177
131
255
170
124
248
156
110
248
156
110
246
154
108
244
152
106
239
147
101
255
170
124
242
150
104
255
170
124
255
168
122
255
196
150
255
193
147
255
198
152
255
214
168
255
198
152
255
209
163
255
255
244
255
255
255
255
255
255
255
255
255
255
255
255
255
255
255
255
255
255
255
255
235
246
154
108
143
51
5
225
133
87
136
44
0
97
5
0
202
110
64
159
67
21
163
71
25
216
124
78
166
74
28
219
127
81
255
173
127
242
150
104
85
0
0
230
138
92
159
67
21
255
219
173
255
253
207
255
232
186
255
179
133
255
179
133
255
182
136
253
161
115
255
173
127
255
182
136
253
161
115
246
154
108
251
159
113
239
147
101
251
159
113
253
161
115
230
138
92
255
177
131
255
189
143
255
209
163
255
209
163
255
221
175
255
235
189
255
255
221
255
255
255
255
255
255
255
255
255
255
255
255
255
255
255
255
255
255
255
255
255
255
255
255
255
255
255
255
232
186
136
44
0
143
51
5
124
32
0
133
41
0
101
9
0
131
39
0
159
67
21
138
46
0
168
76
30
184
92
46
182
90
44
202
110
64
161
69
23
168
76
30
198
106
60
255
219
173
255
251
205
255
205
159
255
175
129
255
182
136
255
166
120
248
156
110
255
170
124
255
182
136
255
166
120
248
156
110
248
156
110
244
152
106
244
152
106
230
138
92
212
120
74
255
173
127
255
196
150
255
198
152
255
198
152
255
223
177
255
248
202
255
255
255
255
255
255
255
255
255
255
255
255
255
255
255
255
255
255
255
255
255
255
255
255
255
255
255
255
255
255
255
248
202
205
113
67
74
0
0
127
35
0
124
32
0
69
0
0
127
35
0
161
69
23
115
23
0
117
25
0
129
37
0
46
0
0
117
25
0
255
163
117
255
166
120
255
168
122
255
221
175
255
228
182
255
205
159
255
202
156
253
161
115
255
166
120
255
184
138
255
186
140
255
175
129
255
168
122
246
154
108
237
145
99
244
152
106
228
136
90
221
129
83
209
117
71
253
161
115
255
184
138
255
193
147
255
209
163
255
235
189
255
255
237
255
255
255
255
255
255
255
255
255
255
255
255
255
255
255
255
255
255
255
255
255
255
255
255
255
255
255
255
255
214
253
161
115
140
48
2
124
32
0
71
0
0
156
64
18
62
0
0
122
30
0
131
39
0
166
74
28
110
18
0
170
78
32
87
0
0
94
2
0
124
32
0
193
101
55
255
200
154
255
209
163
255
219
173
255
193
147
255
193
147
255
205
159
255
184
138
255
212
166
255
198
152
255
170
124
255
173
127
253
161
115
239
147
101
251
159
113
225
133
87
239
147
101
228
136
90
237
145
99
255
168
122
255
198
152
255
230
184
255
244
198
255
255
237
255
255
255
255
255
255
255
255
255
255
255
255
255
255
255
255
255
255
255
255
255
255
255
255
255
255
255
255
255
255
255
242
196
138
46
0
136
44
0
39
0
0
168
76
30
60
0
0
99
7
0
69
0
0
136
44
0
173
81
35
159
67
21
150
58
12
115
23
0
159
67
21
152
60
14
255
255
255
255
225
179
255
198
152
255
205
159
255
196
150
255
205
159
255
198
152
255
200
154
255
191
145
255
177
131
255
177
131
255
175
129
255
166
120
248
156
110
246
154
108
255
163
117
239
147
101
244
152
106
255
175
129
255
198
152
255
235
189
255
253
207
255
255
244
255
255
255
255
255
255
255
255
255
255
255
255
255
255
255
255
255
255
255
255
255
255
255
255
255
255
255
255
255
255
255
232
186
170
78
32
28
0
0
48
0
0
129
37
0
83
0
0
108
16
0
62
0
0
62
0
0
152
60
14
69
0
0
99
7
0
110
18
0
255
177
131
159
67
21
255
255
255
255
255
255
255
193
147
255
173
127
255
216
170
255
189
143
255
205
159
255
182
136
255
179
133
255
184
138
255
179
133
255
182
136
255
173
127
232
140
94
255
170
124
251
159
113
242
150
104
255
177
131
255
200
154
255
202
156
255
239
193
255
255
230
255
255
255
255
255
255
255
255
255
255
255
255
255
255
255
255
255
255
255
255
255
255
255
255
255
255
255
255
255
255
255
255
255
255
255
214
230
138
92
69
0
0
83
0
0
200
108
62
71
0
0
110
18
0
99
7
0
58
0
0
71
0
0
94
2
0
131
39
0
189
97
51
239
147
101
235
143
97
255
255
216
255
255
255
255
255
212
255
168
122
255
209
163
255
212
166
255
196
150
255
193
147
255
186
140
255
166
120
255
166
120
255
186
140
255
189
143
248
156
110
251
159
113
255
179
133
255
175
129
255
198
152
255
221
175
255
175
129
255
255
228
255
255
255
255
255
255
255
255
255
255
255
255
255
255
255
255
255
255
255
255
255
255
255
255
255
255
255
255
255
255
255
255
255
255
255
209
255
200
154
191
99
53
108
16
0
51
0
0
182
90
44
64
0
0
104
12
0
136
44
0
120
28
0
143
51
5
122
30
0
87
0
0
161
69
23
255
196
150
255
182
136
255
214
168
255
255
228
255
223
177
255
163
117
255
216
170
255
200
154
255
191
145
255
184
138
255
184
138
255
179
133
255
182
136
255
193
147
255
186
140
255
166
120
255
179
133
255
186
140
255
198
152
255
219
173
255
246
200
253
161
115
255
255
232
255
255
232
255
255
255
255
255
255
255
255
255
255
255
255
255
255
255
255
255
255
255
255
255
255
255
255
255
255
255
255
255
255
255
255
255
255
216
170
182
90
44
127
35
0
168
76
30
179
87
41
186
94
48
179
87
41
223
131
85
110
18
0
177
85
39
189
97
51
115
23
0
115
23
0
184
92
46
251
159
113
255
212
166
255
202
156
255
200
154
255
191
145
255
205
159
255
191
145
255
191
145
255
179
133
255
179
133
255
189
143
255
189
143
255
196
150
255
186
140
255
175
129
255
175
129
255
193
147
255
219
173
255
242
196
255
239
193
255
189
143
255
255
255
255
255
235
255
255
255
255
255
255
255
255
255
255
255
255
255
255
255
255
255
255
255
255
255
255
255
255
255
255
255
255
255
255
255
255
255
255
255
255
255
230
184
205
113
67
237
145
99
255
189
143
255
232
186
255
214
168
255
230
184
255
205
159
255
235
189
255
253
207
255
237
191
255
196
150
255
170
124
140
48
2
253
161
115
255
225
179
255
182
136
242
150
104
230
138
92
255
175
129
255
191
145
255
182
136
255
173
127
255
184
138
255
179
133
255
189
143
255
184
138
255
177
131
255
166
120
255
212
166
255
239
193
255
255
212
255
198
152
255
251
205
255
255
255
255
255
255
255
255
255
255
255
255
255
255
255
255
255
255
255
255
255
255
255
255
255
255
255
255
255
255
255
255
255
255
255
255
255
255
232
255
214
168
255
205
159
196
104
58
237
145
99
255
170
124
255
200
154
228
136
90
191
99
53
246
154
108
251
159
113
202
110
64
223
131
85
255
186
140
216
124
78
223
131
85
255
209
163
255
182
136
251
159
113
255
182
136
239
147
101
255
196
150
255
179
133
255
179
133
255
170
124
255
175
129
253
161
115
255
184
138
255
179
133
255
173
127
255
186
140
255
225
179
255
255
228
255
255
219
255
175
129
255
255
239
255
255
255
255
255
255
255
255
253
255
255
255
255
255
255
255
255
255
255
255
255
255
255
255
255
255
255
255
255
255
255
255
255
255
255
255
255
255
255
255
225
179
255
189
143
239
147
101
228
136
90
255
251
205
255
175
129
255
198
152
255
232
186
251
159
113
255
202
156
255
189
143
228
136
90
239
147
101
193
101
55
216
124
78
207
115
69
244
152
106
255
170
124
255
191
145
248
156
110
230
138
92
255
163
117
255
175
129
255
166
120
255
175
129
246
154
108
255
179
133
255
177
131
255
179
133
255
209
163
255
214
168
255
255
248
255
246
200
255
193
147
255
255
230
255
255
246
255
255
255
255
255
255
255
255
246
255
255
255
255
255
255
255
255
255
255
255
255
255
255
255
255
255
255
255
255
255
255
255
255
255
255
228
255
221
175
255
179
133
255
189
143
255
184
138
255
207
161
255
184
138
255
175
129
255
223
177
255
228
182
255
182
136
251
159
113
202
110
64
205
113
67
202
110
64
232
140
94
150
58
12
239
147
101
255
177
131
232
140
94
189
97
51
242
150
104
255
168
122
255
173
127
253
161
115
255
179
133
242
150
104
255
173
127
255
177
131
255
198
152
255
196
150
255
198
152
255
255
235
255
209
163
255
205
159
255
255
209
255
255
230
255
255
255
255
255
255
255
255
212
255
255
255
255
255
255
255
255
255
255
255
255
255
255
255
255
255
255
255
255
255
255
255
255
255
255
255
255
209
163
255
225
179
244
152
106
255
186
140
225
133
87
255
184
138
244
152
106
209
117
71
244
152
106
175
83
37
251
159
113
255
173
127
255
189
143
140
48
2
104
12
0
71
0
0
230
138
92
244
152
106
237
145
99
191
99
53
237
145
99
255
182
136
255
173
127
248
156
110
255
179
133
235
143
97
255
163
117
255
177
131
255
216
170
255
177
131
255
200
154
255
255
214
255
173
127
255
191
145
255
246
200
255
255
219
255
255
244
255
255
255
255
235
189
255
255
242
255
255
255
255
255
253
255
255
255
255
255
255
255
255
255
255
255
255
255
255
255
255
255
232
255
216
170
202
110
64
196
104
58
255
177
131
255
216
170
255
239
193
255
202
156
239
147
101
184
92
46
232
140
94
255
235
189
237
145
99
255
193
147
