P3 
48    48   
255 
207
107
207
142
42
142
178
78
178
222
122
222
196
96
196
243
143
243
230
130
230
222
122
222
224
124
224
225
125
225
245
145
245
250
150
250
237
137
237
230
130
230
235
135
235
235
135
235
223
123
223
227
127
227
222
122
222
206
106
206
212
112
212
204
104
204
216
116
216
230
130
230
211
111
211
230
130
230
198
98
198
211
111
211
208
108
208
226
126
226
219
119
219
237
137
237
226
126
226
233
133
233
199
99
199
208
108
208
177
77
177
255
166
255
255
176
255
183
83
183
255
186
255
198
98
198
226
126
226
247
147
247
192
92
192
255
172
255
255
183
255
255
166
255
190
90
190
212
112
212
200
100
200
200
100
200
210
110
210
220
120
220
196
96
196
211
111
211
217
117
217
235
135
235
223
123
223
235
135
235
241
141
241
243
143
243
246
146
246
232
132
232
228
128
228
231
131
231
241
141
241
249
149
249
221
121
221
220
120
220
203
103
203
208
108
208
212
112
212
206
106
206
191
91
191
226
126
226
200
100
200
228
128
228
213
113
213
245
145
245
225
125
225
234
134
234
218
118
218
214
114
214
178
78
178
215
115
215
215
115
215
180
80
180
248
148
248
211
111
211
208
108
208
240
140
240
182
82
182
255
183
255
255
160
255
242
142
242
177
77
177
215
115
215
213
113
213
201
101
201
228
128
228
211
111
211
205
105
205
189
89
189
207
107
207
210
110
210
214
114
214
214
114
214
230
130
230
220
120
220
198
98
198
219
119
219
196
96
196
225
125
225
224
124
224
242
142
242
210
110
210
228
128
228
242
142
242
221
121
221
221
121
221
226
126
226
203
103
203
215
115
215
189
89
189
202
102
202
193
93
193
255
157
255
220
120
220
219
119
219
192
92
192
237
137
237
158
58
158
223
123
223
211
111
211
185
85
185
245
145
245
219
119
219
202
102
202
253
153
253
197
97
197
242
142
242
229
129
229
233
133
233
163
63
163
191
91
191
190
90
190
211
111
211
202
102
202
193
93
193
197
97
197
196
96
196
194
94
194
192
92
192
196
96
196
169
69
169
201
101
201
226
126
226
194
94
194
203
103
203
181
81
181
190
90
190
186
86
186
180
80
180
179
79
179
183
83
183
184
84
184
202
102
202
190
90
190
215
115
215
191
91
191
213
113
213
206
106
206
193
93
193
204
104
204
198
98
198
225
125
225
221
121
221
162
62
162
234
134
234
156
56
156
202
102
202
214
114
214
199
99
199
210
110
210
213
113
213
178
78
178
216
116
216
197
97
197
205
105
205
204
104
204
210
110
210
116
16
116
147
47
147
148
48
148
241
141
241
132
32
132
146
46
146
145
45
145
149
49
149
150
50
150
158
58
158
167
67
167
178
78
178
198
98
198
221
121
221
243
143
243
255
188
255
255
163
255
255
161
255
255
158
255
255
178
255
255
175
255
255
175
255
255
195
255
223
123
223
198
98
198
229
129
229
255
161
255
255
155
255
255
159
255
255
159
255
225
125
225
223
123
223
210
110
210
219
119
219
206
106
206
247
147
247
142
42
142
191
91
191
210
110
210
192
92
192
198
98
198
212
112
212
192
92
192
204
104
204
190
90
190
227
127
227
239
139
239
223
123
223
152
52
152
155
55
155
148
48
148
230
130
230
108
8
108
127
27
127
137
37
137
126
26
126
126
26
126
115
15
115
141
41
141
191
91
191
254
154
254
255
195
255
255
200
255
255
225
255
255
212
255
255
210
255
255
198
255
255
228
255
255
250
255
255
250
255
255
250
255
255
252
255
255
230
255
255
220
255
255
217
255
255
239
255
255
207
255
255
208
255
255
197
255
229
129
229
179
79
179
178
78
178
171
71
171
224
124
224
184
84
184
175
75
175
157
57
157
198
98
198
189
89
189
185
85
185
180
80
180
181
81
181
216
116
216
214
114
214
186
86
186
192
92
192
177
77
177
178
78
178
200
100
200
193
93
193
155
55
155
137
37
137
115
15
115
124
24
124
116
16
116
154
54
154
242
142
242
255
173
255
255
175
255
242
142
242
206
106
206
241
141
241
255
193
255
255
180
255
210
110
210
252
152
252
255
208
255
255
234
255
255
255
255
255
255
255
255
254
255
255
251
255
255
240
255
255
246
255
255
213
255
255
196
255
255
156
255
202
102
202
194
94
194
137
37
137
175
75
175
148
48
148
176
76
176
219
119
219
186
86
186
212
112
212
156
56
156
162
62
162
181
81
181
166
66
166
172
72
172
134
34
134
129
29
129
171
71
171
184
84
184
169
69
169
255
158
255
190
90
190
161
61
161
139
39
139
112
12
112
149
49
149
149
49
149
229
129
229
251
151
251
211
111
211
181
81
181
175
75
175
168
68
168
173
73
173
207
107
207
202
102
202
176
76
176
242
142
242
255
207
255
255
221
255
255
244
255
255
254
255
255
254
255
255
251
255
255
254
255
255
253
255
255
254
255
255
237
255
255
168
255
221
121
221
170
70
170
191
91
191
130
30
130
120
20
120
150
50
150
223
123
223
255
175
255
230
130
230
165
65
165
151
51
151
145
45
145
196
96
196
189
89
189
135
35
135
117
17
117
178
78
178
193
93
193
228
128
228
252
152
252
193
93
193
153
53
153
156
56
156
129
29
129
161
61
161
249
149
249
247
147
247
211
111
211
200
100
200
242
142
242
204
104
204
185
85
185
202
102
202
232
132
232
167
67
167
238
138
238
255
158
255
255
181
255
255
215
255
255
231
255
255
245
255
255
254
255
255
250
255
255
251
255
255
254
255
255
254
255
255
245
255
255
162
255
255
178
255
224
124
224
199
99
199
185
85
185
169
69
169
134
34
134
165
65
165
255
188
255
255
231
255
255
173
255
183
83
183
149
49
149
177
77
177
197
97
197
148
48
148
117
17
117
167
67
167
107
7
107
245
145
245
202
102
202
149
49
149
166
66
166
165
65
165
255
169
255
255
185
255
255
177
255
240
140
240
182
82
182
129
29
129
102
2
102
154
54
154
186
86
186
217
117
217
239
139
239
221
121
221
255
162
255
255
175
255
255
198
255
255
185
255
255
201
255
255
240
255
255
248
255
255
253
255
255
253
255
255
252
255
255
254
255
255
221
255
239
139
239
200
100
200
179
79
179
204
104
204
218
118
218
177
77
177
147
47
147
130
30
130
226
126
226
255
215
255
255
233
255
255
178
255
139
39
139
194
94
194
196
96
196
171
71
171
141
41
141
182
82
182
126
26
126
167
67
167
194
94
194
168
68
168
148
48
148
161
61
161
236
136
236
255
172
255
250
150
250
241
141
241
200
100
200
163
63
163
253
153
253
254
154
254
195
95
195
180
80
180
240
140
240
255
157
255
246
146
246
255
158
255
255
190
255
255
218
255
255
201
255
255
213
255
255
230
255
255
249
255
255
252
255
255
253
255
255
254
255
255
226
255
239
139
239
168
68
168
127
27
127
136
36
136
183
83
183
173
73
173
138
38
138
147
47
147
159
59
159
252
152
252
255
222
255
255
169
255
177
77
177
194
94
194
179
79
179
217
117
217
158
58
158
171
71
171
136
36
136
185
85
185
197
97
197
189
89
189
142
42
142
146
46
146
171
71
171
241
141
241
233
133
233
149
49
149
159
59
159
244
144
244
221
121
221
250
150
250
234
134
234
164
64
164
249
149
249
255
159
255
255
166
255
248
148
248
255
158
255
255
180
255
255
186
255
255
209
255
255
225
255
255
234
255
255
243
255
255
253
255
255
246
255
255
241
255
249
149
249
193
93
193
148
48
148
124
24
124
156
56
156
213
113
213
202
102
202
142
42
142
171
71
171
255
156
255
255
209
255
255
155
255
142
42
142
191
91
191
167
67
167
180
80
180
191
91
191
229
129
229
141
41
141
173
73
173
209
109
209
213
113
213
154
54
154
179
79
179
169
69
169
224
124
224
216
116
216
179
79
179
181
81
181
188
88
188
192
92
192
235
135
235
252
152
252
198
98
198
230
130
230
236
136
236
224
124
224
236
136
236
217
117
217
252
152
252
244
144
244
255
163
255
255
200
255
255
213
255
255
227
255
255
240
255
255
234
255
255
242
255
255
175
255
238
138
238
203
103
203
191
91
191
157
57
157
168
68
168
177
77
177
127
27
127
158
58
158
252
152
252
255
217
255
239
139
239
146
46
146
194
94
194
183
83
183
184
84
184
192
92
192
220
120
220
187
87
187
164
64
164
209
109
209
191
91
191
249
149
249
178
78
178
201
101
201
231
131
231
245
145
245
183
83
183
171
71
171
179
79
179
209
109
209
245
145
245
213
113
213
187
87
187
217
117
217
217
117
217
193
93
193
182
82
182
185
85
185
188
88
188
210
110
210
213
113
213
249
149
249
255
187
255
255
208
255
255
219
255
255
233
255
255
241
255
255
209
255
255
179
255
255
161
255
218
118
218
157
57
157
132
32
132
136
36
136
125
25
125
118
18
118
206
106
206
255
181
255
255
166
255
111
11
111
200
100
200
178
78
178
188
88
188
195
95
195
254
154
254
203
103
203
164
64
164
162
62
162
135
35
135
152
52
152
120
20
120
126
26
126
174
74
174
239
139
239
198
98
198
185
85
185
175
75
175
192
92
192
207
107
207
165
65
165
155
55
155
167
67
167
167
67
167
165
65
165
199
99
199
206
106
206
206
106
206
200
100
200
190
90
190
215
115
215
255
166
255
255
192
255
255
198
255
255
219
255
255
233
255
255
202
255
255
191
255
255
159
255
231
131
231
197
97
197
151
51
151
144
44
144
125
25
125
159
59
159
163
63
163
224
124
224
255
198
255
142
42
142
203
103
203
211
111
211
215
115
215
183
83
183
193
93
193
218
118
218
166
66
166
198
98
198
169
69
169
146
46
146
155
55
155
153
53
153
174
74
174
241
141
241
236
136
236
191
91
191
141
41
141
163
63
163
155
55
155
131
31
131
139
39
139
148
48
148
144
44
144
182
82
182
185
85
185
199
99
199
226
126
226
221
121
221
179
79
179
195
95
195
238
138
238
255
174
255
255
181
255
255
196
255
255
225
255
255
171
255
255
190
255
255
184
255
236
136
236
209
109
209
177
77
177
139
39
139
137
37
137
186
86
186
203
103
203
180
80
180
227
127
227
173
73
173
211
111
211
128
28
128
147
47
147
168
68
168
174
74
174
203
103
203
164
64
164
166
66
166
164
64
164
135
35
135
125
25
125
132
32
132
189
89
189
252
152
252
255
157
255
190
90
190
127
27
127
132
32
132
108
8
108
120
20
120
132
32
132
150
50
150
176
76
176
184
84
184
179
79
179
147
47
147
178
78
178
173
73
173
141
41
141
171
71
171
199
99
199
233
133
233
244
144
244
255
180
255
255
233
255
254
154
254
255
171
255
235
135
235
195
95
195
208
108
208
202
102
202
179
79
179
193
93
193
246
146
246
192
92
192
163
63
163
150
50
150
166
66
166
192
92
192
209
109
209
192
92
192
150
50
150
248
148
248
192
92
192
181
81
181
161
61
161
201
101
201
120
20
120
137
37
137
143
43
143
173
73
173
234
134
234
236
136
236
140
40
140
118
18
118
104
4
104
117
17
117
114
14
114
120
20
120
117
17
117
119
19
119
111
11
111
113
13
113
105
5
105
147
47
147
142
42
142
119
19
119
101
1
101
140
40
140
213
113
213
255
175
255
255
184
255
255
244
255
255
203
255
216
116
216
137
37
137
168
68
168
195
95
195
240
140
240
237
137
237
223
123
223
255
175
255
239
139
239
173
73
173
136
36
136
192
92
192
232
132
232
176
76
176
147
47
147
148
48
148
186
86
186
220
120
220
208
108
208
186
86
186
166
66
166
139
39
139
152
52
152
213
113
213
220
120
220
244
144
244
205
105
205
111
11
111
115
15
115
112
12
112
112
12
112
135
35
135
153
53
153
120
20
120
109
9
109
134
34
134
121
21
121
104
4
104
119
19
119
149
49
149
143
43
143
101
1
101
203
103
203
255
189
255
255
237
255
255
221
255
255
250
255
255
250
255
255
175
255
176
76
176
210
110
210
255
170
255
255
217
255
255
196
255
246
146
246
255
201
255
235
135
235
142
42
142
162
62
162
181
81
181
235
135
235
147
47
147
171
71
171
156
56
156
199
99
199
217
117
217
211
111
211
215
115
215
223
123
223
255
180
255
255
176
255
255
183
255
255
177
255
250
150
250
215
115
215
166
66
166
148
48
148
156
56
156
149
49
149
182
82
182
180
80
180
136
36
136
156
56
156
174
74
174
198
98
198
189
89
189
168
68
168
106
6
106
103
3
103
203
103
203
255
202
255
255
249
255
255
254
255
255
254
255
255
255
255
255
254
255
255
253
255
255
156
255
167
67
167
255
185
255
255
178
255
255
211
255
255
193
255
255
164
255
211
111
211
161
61
161
178
78
178
210
110
210
167
67
167
165
65
165
144
44
144
164
64
164
188
88
188
244
144
244
255
165
255
245
145
245
247
147
247
255
176
255
255
180
255
255
170
255
255
175
255
255
159
255
230
130
230
202
102
202
179
79
179
173
73
173
181
81
181
190
90
190
179
79
179
196
96
196
182
82
182
179
79
179
179
79
179
190
90
190
181
81
181
175
75
175
190
90
190
255
166
255
255
208
255
255
237
255
255
248
255
255
254
255
255
255
255
255
251
255
255
255
255
255
248
255
187
87
187
255
182
255
255
190
255
255
209
255
255
215
255
255
166
255
194
94
194
162
62
162
192
92
192
213
113
213
150
50
150
169
69
169
127
27
127
135
35
135
163
63
163
250
150
250
255
156
255
213
113
213
230
130
230
255
156
255
255
174
255
255
185
255
255
169
255
255
163
255
223
123
223
199
99
199
174
74
174
171
71
171
179
79
179
172
72
172
165
65
165
165
65
165
170
70
170
135
35
135
169
69
169
219
119
219
241
141
241
218
118
218
249
149
249
255
160
255
255
185
255
255
224
255
255
254
255
255
251
255
255
251
255
255
254
255
255
253
255
255
254
255
255
214
255
255
191
255
255
225
255
255
221
255
255
209
255
255
175
255
191
91
191
142
42
142
255
168
255
198
98
198
255
162
255
202
102
202
220
120
220
224
124
224
223
123
223
255
161
255
248
148
248
224
124
224
255
182
255
255
172
255
255
171
255
255
170
255
255
175
255
248
148
248
233
133
233
216
116
216
175
75
175
178
78
178
180
80
180
170
70
170
145
45
145
176
76
176
180
80
180
182
82
182
217
117
217
255
166
255
255
160
255
253
153
253
246
146
246
242
142
242
255
167
255
255
205
255
255
247
255
255
249
255
255
254
255
255
254
255
255
251
255
255
254
255
255
254
255
255
218
255
255
227
255
255
200
255
255
202
255
255
156
255
160
60
160
160
60
160
240
140
240
221
121
221
253
153
253
196
96
196
255
186
255
255
201
255
255
183
255
227
127
227
217
117
217
217
117
217
232
132
232
239
139
239
255
157
255
255
155
255
255
159
255
255
155
255
243
143
243
214
114
214
189
89
189
176
76
176
162
62
162
158
58
158
160
60
160
154
54
154
178
78
178
185
85
185
213
113
213
242
142
242
229
129
229
238
138
238
240
140
240
225
125
225
242
142
242
255
185
255
255
222
255
255
232
255
255
249
255
255
236
255
255
252
255
255
249
255
255
254
255
255
242
255
255
221
255
255
202
255
255
179
255
242
142
242
168
68
168
155
55
155
255
159
255
227
127
227
248
148
248
222
122
222
229
129
229
188
88
188
127
27
127
238
138
238
179
79
179
230
130
230
234
134
234
229
129
229
236
136
236
229
129
229
241
141
241
244
144
244
240
140
240
219
119
219
195
95
195
184
84
184
172
72
172
154
54
154
145
45
145
152
52
152
175
75
175
174
74
174
172
72
172
183
83
183
212
112
212
235
135
235
226
126
226
226
126
226
255
165
255
255
169
255
255
185
255
255
181
255
255
199
255
255
188
255
255
175
255
255
238
255
255
250
255
255
250
255
255
194
255
255
198
255
255
171
255
227
127
227
195
95
195
162
62
162
255
157
255
233
133
233
240
140
240
255
157
255
255
182
255
190
90
190
105
5
105
245
145
245
172
72
172
242
142
242
249
149
249
227
127
227
254
154
254
255
159
255
255
161
255
255
162
255
252
152
252
232
132
232
212
112
212
199
99
199
184
84
184
166
66
166
154
54
154
145
45
145
160
60
160
165
65
165
162
62
162
185
85
185
226
126
226
236
136
236
221
121
221
230
130
230
249
149
249
250
150
250
188
88
188
162
62
162
132
32
132
186
86
186
242
142
242
255
185
255
255
252
255
255
252
255
255
194
255
255
169
255
231
131
231
235
135
235
255
167
255
215
115
215
217
117
217
192
92
192
190
90
190
157
57
157
166
66
166
157
57
157
107
7
107
239
139
239
195
95
195
255
169
255
246
146
246
234
134
234
255
160
255
255
167
255
255
170
255
255
162
255
249
149
249
234
134
234
220
120
220
204
104
204
189
89
189
173
73
173
158
58
158
159
59
159
155
55
155
165
65
165
172
72
172
195
95
195
219
119
219
214
114
214
210
110
210
231
131
231
229
129
229
246
146
246
187
87
187
178
78
178
106
6
106
133
33
133
192
92
192
254
154
254
255
249
255
255
251
255
237
137
237
255
188
255
227
127
227
235
135
235
244
144
244
184
84
184
151
51
151
192
92
192
185
85
185
207
107
207
205
105
205
186
86
186
167
67
167
255
157
255
214
114
214
253
153
253
223
123
223
249
149
249
255
164
255
255
170
255
255
167
255
255
156
255
242
142
242
233
133
233
227
127
227
212
112
212
200
100
200
187
87
187
174
74
174
163
63
163
148
48
148
147
47
147
162
62
162
192
92
192
217
117
217
221
121
221
224
124
224
205
105
205
226
126
226
213
113
213
165
65
165
121
21
121
115
15
115
103
3
103
139
39
139
255
167
255
255
245
255
255
244
255
250
150
250
214
114
214
216
116
216
214
114
214
163
63
163
195
95
195
233
133
233
255
173
255
172
72
172
246
146
246
243
143
243
254
154
254
232
132
232
228
128
228
203
103
203
232
132
232
242
142
242
255
169
255
255
164
255
255
164
255
252
152
252
247
147
247
238
138
238
235
135
235
232
132
232
220
120
220
211
111
211
206
106
206
196
96
196
188
88
188
184
84
184
170
70
170
173
73
173
195
95
195
217
117
217
223
123
223
207
107
207
221
121
221
205
105
205
208
108
208
167
67
167
145
45
145
116
16
116
104
4
104
132
32
132
255
191
255
255
254
255
255
211
255
210
110
210
244
144
244
212
112
212
208
108
208
152
52
152
206
106
206
223
123
223
255
175
255
149
49
149
255
172
255
255
174
255
255
177
255
244
144
244
184
84
184
207
107
207
206
106
206
217
117
217
235
135
235
246
146
246
244
144
244
247
147
247
236
136
236
233
133
233
231
131
231
226
126
226
220
120
220
215
115
215
212
112
212
207
107
207
194
94
194
202
102
202
195
95
195
198
98
198
202
102
202
209
109
209
225
125
225
222
122
222
202
102
202
202
102
202
195
95
195
179
79
179
131
31
131
139
39
139
138
38
138
192
92
192
255
166
255
255
225
255
255
181
255
217
117
217
255
155
255
196
96
196
218
118
218
153
53
153
196
96
196
195
95
195
255
166
255
172
72
172
255
173
255
255
157
255
254
154
254
255
168
255
179
79
179
213
113
213
198
98
198
206
106
206
251
151
251
255
172
255
246
146
246
234
134
234
232
132
232
234
134
234
227
127
227
220
120
220
217
117
217
216
116
216
211
111
211
209
109
209
204
104
204
203
103
203
201
101
201
198
98
198
188
88
188
185
85
185
203
103
203
225
125
225
234
134
234
207
107
207
175
75
175
163
63
163
135
35
135
127
27
127
127
27
127
186
86
186
238
138
238
255
158
255
243
143
243
211
111
211
224
124
224
194
94
194
235
135
235
161
61
161
204
104
204
219
119
219
237
137
237
204
104
204
255
165
255
255
162
255
255
166
255
255
162
255
178
78
178
168
68
168
178
78
178
197
97
197
248
148
248
255
159
255
246
146
246
223
123
223
229
129
229
232
132
232
221
121
221
210
110
210
212
112
212
212
112
212
207
107
207
204
104
204
207
107
207
203
103
203
210
110
210
203
103
203
196
96
196
194
94
194
184
84
184
190
90
190
206
106
206
220
120
220
203
103
203
180
80
180
164
64
164
170
70
170
180
80
180
236
136
236
255
212
255
255
183
255
255
157
255
205
105
205
200
100
200
190
90
190
220
120
220
187
87
187
230
130
230
205
105
205
228
128
228
231
131
231
226
126
226
244
144
244
234
134
234
255
163
255
193
93
193
125
25
125
177
77
177
225
125
225
253
153
253
237
137
237
218
118
218
187
87
187
183
83
183
205
105
205
211
111
211
204
104
204
206
106
206
209
109
209
206
106
206
209
109
209
199
99
199
210
110
210
201
101
201
210
110
210
201
101
201
207
107
207
202
102
202
205
105
205
195
95
195
209
109
209
230
130
230
225
125
225
235
135
235
241
141
241
255
172
255
255
225
255
255
228
255
255
185
255
253
153
253
219
119
219
157
57
157
173
73
173
195
95
195
173
73
173
204
104
204
160
60
160
162
62
162
200
100
200
177
77
177
186
86
186
210
110
210
227
127
227
183
83
183
168
68
168
165
65
165
216
116
216
253
153
253
232
132
232
210
110
210
223
123
223
206
106
206
210
110
210
214
114
214
211
111
211
205
105
205
205
105
205
204
104
204
203
103
203
201
101
201
211
111
211
202
102
202
211
111
211
210
110
210
222
122
222
221
121
221
223
123
223
230
130
230
223
123
223
228
128
228
255
163
255
255
206
255
255
222
255
255
230
255
255
237
255
255
239
255
255
199
255
255
159
255
204
104
204
159
59
159
195
95
195
156
56
156
139
39
139
185
85
185
166
66
166
168
68
168
191
91
191
169
69
169
192
92
192
212
112
212
202
102
202
134
34
134
197
97
197
166
66
166
232
132
232
247
147
247
238
138
238
215
115
215
215
115
215
216
116
216
207
107
207
212
112
212
216
116
216
207
107
207
204
104
204
206
106
206
201
101
201
206
106
206
207
107
207
197
97
197
214
114
214
219
119
219
228
128
228
228
128
228
233
133
233
239
139
239
253
153
253
255
169
255
255
209
255
255
236
255
255
239
255
255
245
255
255
243
255
255
242
255
255
221
255
255
170
255
238
138
238
156
56
156
159
59
159
151
51
151
155
55
155
141
41
141
154
54
154
166
66
166
157
57
157
170
70
170
177
77
177
176
76
176
185
85
185
167
67
167
170
70
170
183
83
183
232
132
232
246
146
246
226
126
226
213
113
213
216
116
216
209
109
209
205
105
205
211
111
211
216
116
216
209
109
209
205
105
205
205
105
205
203
103
203
203
103
203
197
97
197
189
89
189
212
112
212
222
122
222
223
123
223
223
123
223
234
134
234
245
145
245
255
174
255
255
196
255
255
216
255
255
240
255
255
237
255
255
240
255
255
242
255
255
240
255
255
218
255
255
172
255
245
145
245
186
86
186
129
29
129
152
52
152
151
51
151
127
27
127
152
52
152
167
67
167
147
47
147
148
48
148
153
53
153
117
17
117
148
48
148
208
108
208
209
109
209
210
110
210
233
133
233
236
136
236
226
126
226
225
125
225
207
107
207
209
109
209
217
117
217
218
118
218
213
113
213
210
110
210
204
104
204
200
100
200
203
103
203
196
96
196
193
93
193
188
88
188
207
107
207
217
117
217
221
121
221
228
128
228
239
139
239
255
160
255
255
186
255
255
199
255
255
193
255
255
230
255
255
239
255
255
231
255
255
236
255
255
239
255
255
219
255
250
150
250
207
107
207
158
58
158
151
51
151
128
28
128
165
65
165
124
24
124
150
50
150
154
54
154
169
69
169
145
45
145
171
71
171
135
35
135
138
38
138
151
51
151
181
81
181
224
124
224
228
128
228
232
132
232
221
121
221
221
121
221
226
126
226
217
117
217
229
129
229
223
123
223
211
111
211
212
112
212
207
107
207
201
101
201
206
106
206
195
95
195
201
101
201
196
96
196
200
100
200
210
110
210
223
123
223
237
137
237
243
143
243
255
160
255
255
191
255
255
204
255
255
184
255
255
210
255
255
225
255
255
222
255
255
236
255
255
236
255
255
230
255
255
175
255
242
142
242
157
57
157
156
56
156
114
14
114
170
70
170
123
23
123
140
40
140
127
27
127
156
56
156
172
72
172
166
66
166
162
62
162
147
47
147
166
66
166
163
63
163
255
206
255
235
135
235
223
123
223
226
126
226
222
122
222
226
126
226
223
123
223
224
124
224
220
120
220
214
114
214
214
114
214
213
113
213
209
109
209
205
105
205
204
104
204
208
108
208
201
101
201
203
103
203
213
113
213
223
123
223
239
139
239
247
147
247
255
163
255
255
191
255
255
198
255
255
201
255
255
211
255
255
235
255
255
233
255
255
238
255
255
249
255
255
223
255
255
181
255
238
138
238
171
71
171
109
9
109
118
18
118
153
53
153
133
33
133
144
44
144
124
24
124
124
24
124
163
63
163
127
27
127
140
40
140
145
45
145
214
114
214
166
66
166
255
188
255
255
208
255
221
121
221
212
112
212
231
131
231
219
119
219
226
126
226
216
116
216
215
115
215
217
117
217
215
115
215
216
116
216
212
112
212
198
98
198
211
111
211
206
106
206
202
102
202
214
114
214
224
124
224
225
125
225
241
141
241
255
157
255
255
170
255
255
197
255
255
200
255
255
226
255
255
216
255
255
237
255
255
237
255
255
229
255
255
237
255
255
230
255
255
176
255
250
150
250
197
97
197
127
27
127
133
33
133
184
84
184
128
28
128
145
45
145
140
40
140
122
22
122
128
28
128
138
38
138
154
54
154
179
79
179
201
101
201
199
99
199
251
151
251
255
191
255
249
149
249
210
110
210
228
128
228
229
129
229
222
122
222
221
121
221
218
118
218
209
109
209
209
109
209
218
118
218
219
119
219
205
105
205
206
106
206
215
115
215
213
113
213
223
123
223
233
133
233
213
113
213
255
156
255
255
170
255
255
175
255
255
197
255
255
219
255
255
233
255
255
220
255
255
240
255
255
235
255
255
239
255
255
238
255
255
221
255
248
148
248
224
124
224
180
80
180
144
44
144
119
19
119
176
76
176
125
25
125
142
42
142
156
56
156
149
49
149
159
59
159
150
50
150
135
35
135
167
67
167
222
122
222
216
116
216
230
130
230
255
156
255
234
134
234
208
108
208
231
131
231
224
124
224
220
120
220
217
117
217
217
117
217
215
115
215
216
116
216
221
121
221
218
118
218
209
109
209
215
115
215
218
118
218
223
123
223
232
132
232
244
144
244
207
107
207
255
158
255
255
158
255
255
192
255
255
198
255
255
216
255
255
226
255
255
229
255
255
230
255
255
231
255
255
230
255
255
242
255
255
231
255
255
186
255
231
131
231
176
76
176
152
52
152
170
70
170
175
75
175
178
78
178
175
75
175
194
94
194
145
45
145
174
74
174
179
79
179
147
47
147
147
47
147
177
77
177
206
106
206
229
129
229
225
125
225
224
124
224
220
120
220
226
126
226
220
120
220
220
120
220
215
115
215
215
115
215
219
119
219
219
119
219
222
122
222
218
118
218
213
113
213
213
113
213
221
121
221
232
132
232
242
142
242
241
141
241
219
119
219
255
171
255
255
159
255
255
186
255
255
203
255
255
213
255
255
215
255
255
223
255
255
231
255
255
234
255
255
223
255
255
214
255
255
212
255
255
183
255
255
168
255
237
137
237
186
86
186
200
100
200
219
119
219
238
138
238
230
130
230
237
137
237
226
126
226
239
139
239
247
147
247
240
140
240
222
122
222
211
111
211
158
58
158
207
107
207
235
135
235
216
116
216
202
102
202
197
97
197
213
113
213
220
120
220
216
116
216
212
112
212
217
117
217
215
115
215
219
119
219
217
117
217
214
114
214
209
109
209
229
129
229
241
141
241
249
149
249
223
123
223
246
146
246
255
181
255
255
171
255
255
169
255
255
200
255
255
208
255
255
216
255
255
213
255
255
230
255
255
232
255
255
222
255
255
225
255
255
199
255
255
158
255
230
130
230
226
126
226
182
82
182
200
100
200
211
111
211
224
124
224
196
96
196
180
80
180
204
104
204
206
106
206
185
85
185
194
94
194
218
118
218
191
91
191
194
94
194
228
128
228
216
116
216
206
106
206
216
116
216
201
101
201
222
122
222
215
115
215
215
115
215
211
111
211
213
113
213
207
107
207
217
117
217
215
115
215
212
112
212
218
118
218
235
135
235
255
156
255
252
152
252
213
113
213
255
161
255
255
176
255
255
180
255
255
167
255
255
183
255
255
198
255
255
216
255
255
214
255
255
218
255
255
222
255
255
224
255
255
227
255
255
244
255
255
184
255
235
135
235
219
119
219
201
101
201
196
96
196
246
146
246
213
113
213
223
123
223
238
138
238
206
106
206
225
125
225
219
119
219
196
96
196
201
101
201
181
81
181
191
91
191
187
87
187
203
103
203
211
111
211
220
120
220
205
105
205
197
97
197
208
108
208
213
113
213
209
109
209
213
113
213
204
104
204
215
115
215
214
114
214
215
115
215
228
128
228
230
130
230
255
165
255
244
144
244
221
121
221
255
157
255
255
164
255
255
180
255
255
168
255
255
164
255
255
190
255
255
196
255
255
208
255
255
210
255
255
221
255
255
220
255
255
238
255
255
203
255
255
156
255
233
133
233
215
115
215
219
119
219
217
117
217
227
127
227
217
117
217
213
113
213
234
134
234
236
136
236
216
116
216
206
106
206
185
85
185
186
86
186
185
85
185
198
98
198
162
62
162
201
101
201
214
114
214
198
98
198
179
79
179
202
102
202
210
110
210
212
112
212
207
107
207
215
115
215
202
102
202
212
112
212
214
114
214
223
123
223
222
122
222
223
123
223
255
159
255
228
128
228
226
126
226
248
148
248
255
157
255
255
173
255
255
170
255
249
149
249
255
178
255
255
175
255
255
187
255
255
201
255
255
217
255
255
219
255
255
226
255
255
202
255
255
180
255
228
128
228
235
135
235
203
103
203
218
118
218
195
95
195
217
117
217
203
103
203
188
88
188
203
103
203
173
73
173
206
106
206
212
112
212
219
119
219
158
58
158
142
42
142
128
28
128
197
97
197
203
103
203
200
100
200
180
80
180
200
100
200
216
116
216
212
112
212
205
105
205
215
115
215
199
99
199
208
108
208
214
114
214
231
131
231
214
114
214
224
124
224
250
150
250
212
112
212
220
120
220
244
144
244
252
152
252
255
163
255
255
179
255
239
139
239
255
162
255
255
173
255
255
167
255
255
185
255
255
200
255
255
226
255
255
232
255
255
216
255
255
158
255
231
131
231
185
85
185
182
82
182
214
114
214
231
131
231
241
141
241
225
125
225
201
101
201
177
77
177
198
98
198
239
139
239
200
100
200
221
121
221
