P3 
2    2   
255 
0 0 105 105 105 105 0 0 0 0 0 0 