P3 
2    2   
255 
105 239 0 0 0 0 155 155 115 135 125 135 