P3 
3    2   
255 
0 255 190 0 255 82 255 255 255 34 0 160 0 255 0 255 255 255 