P3 
3    2   
255 
75 253 178 48 255 142 126 77 168 99 255 57 58 229 233 185 38 247 